<?xml version="1.0" encoding="UTF-8"?>
<svg width="128" height="128" viewBox="0 0 128 128" xmlns="http://www.w3.org/2000/svg">
  <defs>
    <linearGradient id="barGradient" x1="0%" y1="0%" x2="0%" y2="100%">
      <stop offset="0%" style="stop-color:#5c6bc0;stop-opacity:1"/>
      <stop offset="100%" style="stop-color:#3949ab;stop-opacity:1"/>
    </linearGradient>
    <linearGradient id="gearGradient" x1="0%" y1="0%" x2="100%" y2="100%">
      <stop offset="0%" style="stop-color:#78909c;stop-opacity:1"/>
      <stop offset="100%" style="stop-color:#546e7a;stop-opacity:1"/>
    </linearGradient>
  </defs>

  <rect x="8" y="8" width="112" height="24" rx="4" fill="url(#barGradient)"/>

  <rect x="16" y="14" width="12" height="12" rx="2" fill="#fff" opacity="0.9"/>
  <rect x="32" y="14" width="24" height="12" rx="2" fill="#fff" opacity="0.7"/>
  <rect x="60" y="14" width="16" height="12" rx="2" fill="#fff" opacity="0.5"/>

  <rect x="84" y="14" width="8" height="12" rx="2" fill="#fff" opacity="0.6"/>
  <rect x="96" y="14" width="8" height="12" rx="2" fill="#fff" opacity="0.6"/>

  <g transform="translate(64, 76)">
    <path d="M0,-32 L6,-28 L6,-20 L12,-16 L12,-8 L6,-4 L6,4 L12,8 L12,16 L6,20 L6,28 L0,32 L-6,28 L-6,20 L-12,16 L-12,8 L-6,4 L-6,-4 L-12,-8 L-12,-16 L-6,-20 L-6,-28 Z"
          fill="url(#gearGradient)" stroke="#37474f" stroke-width="2"/>
    <circle cx="0" cy="0" r="12" fill="#eceff1" stroke="#37474f" stroke-width="2"/>
    <circle cx="0" cy="0" r="6" fill="#546e7a"/>
  </g>

  <line x1="32" y1="52" x2="32" y2="64" stroke="#5c6bc0" stroke-width="3" stroke-linecap="round"/>
  <line x1="96" y1="52" x2="96" y2="64" stroke="#5c6bc0" stroke-width="3" stroke-linecap="round"/>
</svg>
